# MagicaVoxel @ Ephtracy

# material
mtllib Tower_Top.mtl
usemtl palette

# normals
vn -1 0 0
vn 1 0 0
vn 0 0 1
vn 0 0 -1
vn 0 -1 0
vn 0 1 0

# texcoords
vt 0.697266 0.5
vt 0.884766 0.5
vt 0.896484 0.5
vt 0.908203 0.5
vt 0.912109 0.5
vt 0.966797 0.5
vt 0.994141 0.5

# verts
v -7 0 3
v -7 0 -3
v -7 1 2
v -7 1 -2
v -7 2 4
v -7 2 3
v -7 2 2
v -7 2 -2
v -7 2 -3
v -7 2 -4
v -7 3 2
v -7 3 -2
v -7 4 2
v -7 4 -2
v -7 5 2
v -7 5 -2
v -7 6 4
v -7 6 3
v -7 6 2
v -7 6 -2
v -7 6 -3
v -7 6 -4
v -7 7 3
v -7 7 -3
v -6 1 2
v -6 1 -2
v -6 2 2
v -6 2 -2
v -6 3 2
v -6 3 -2
v -6 4 2
v -6 4 -2
v -6 5 2
v -6 5 -2
v -6 6 2
v -6 6 -2
v -5 1 5
v -5 1 3
v -5 1 -3
v -5 1 -5
v -5 2 4
v -5 2 3
v -5 2 -3
v -5 2 -4
v -5 6 5
v -5 6 4
v -5 6 3
v -5 6 -3
v -5 6 -4
v -5 6 -5
v -5 7 3
v -5 7 1
v -5 7 -1
v -5 7 -3
v -5 8 3
v -5 8 1
v -5 8 -1
v -5 8 -3
v -5 9 4
v -5 9 3
v -5 9 -3
v -5 9 -4
v -4 7 1
v -4 7 -1
v -4 8 1
v -4 8 -1
v -2 1 4
v -2 1 3
v -2 1 -3
v -2 1 -4
v -2 2 5
v -2 2 4
v -2 2 3
v -2 2 -3
v -2 2 -4
v -2 2 -5
v -2 3 5
v -2 3 4
v -2 3 -4
v -2 3 -5
v -2 4 5
v -2 4 4
v -2 4 -4
v -2 4 -5
v -2 5 5
v -2 5 4
v -2 5 3
v -2 5 -3
v -2 5 -4
v -2 5 -5
v -2 6 4
v -2 6 3
v -2 6 -3
v -2 6 -4
v -2 7 3
v -2 7 -3
v -2 8 4
v -2 8 3
v -2 8 -3
v -2 8 -4
v -1 2 4
v -1 2 3
v -1 2 -3
v -1 2 -4
v -1 5 4
v -1 5 3
v -1 5 -3
v -1 5 -4
v -5 2 4
v -5 2 3
v -5 2 -3
v -5 2 -4
v -5 5 4
v -5 5 3
v -5 5 -3
v -5 5 -4
v -4 1 4
v -4 1 3
v -4 1 -3
v -4 1 -4
v -4 2 5
v -4 2 4
v -4 2 3
v -4 2 -3
v -4 2 -4
v -4 2 -5
v -4 3 5
v -4 3 4
v -4 3 -4
v -4 3 -5
v -4 4 5
v -4 4 4
v -4 4 -4
v -4 4 -5
v -4 5 5
v -4 5 4
v -4 5 3
v -4 5 -3
v -4 5 -4
v -4 5 -5
v -4 6 4
v -4 6 -4
v -4 7 3
v -4 7 -3
v -4 8 4
v -4 8 3
v -4 8 -3
v -4 8 -4
v -2 7 1
v -2 7 -1
v -2 8 1
v -2 8 -1
v -1 1 5
v -1 1 3
v -1 1 -3
v -1 1 -5
v -1 2 4
v -1 2 3
v -1 2 -3
v -1 2 -4
v -1 6 5
v -1 6 4
v -1 6 3
v -1 6 -3
v -1 6 -4
v -1 6 -5
v -1 7 3
v -1 7 1
v -1 7 -1
v -1 7 -3
v -1 8 3
v -1 8 1
v -1 8 -1
v -1 8 -3
v -1 9 4
v -1 9 3
v -1 9 -3
v -1 9 -4
v 1 0 3
v 1 0 -3
v 1 2 4
v 1 2 3
v 1 2 1
v 1 2 -1
v 1 2 -3
v 1 2 -4
v 1 3 2
v 1 3 1
v 1 3 -1
v 1 3 -2
v 1 5 2
v 1 5 1
v 1 5 -1
v 1 5 -2
v 1 6 4
v 1 6 3
v 1 6 1
v 1 6 -1
v 1 6 -3
v 1 6 -4
v 1 7 3
v 1 7 -3
v 2 3 1
v 2 3 -1
v 2 5 1
v 2 5 -1
v 7 2 1
v 7 2 -1
v 7 3 2
v 7 3 1
v 7 3 -1
v 7 3 -2
v 7 5 2
v 7 5 1
v 7 5 -1
v 7 5 -2
v 7 6 1
v 7 6 -1
v -5 1 5
v -5 6 5
v -4 2 5
v -4 3 5
v -4 4 5
v -4 5 5
v -2 2 5
v -2 3 5
v -2 4 5
v -2 5 5
v -1 1 5
v -1 6 5
v -7 2 4
v -7 6 4
v -5 2 4
v -5 6 4
v -5 9 4
v -4 6 4
v -4 8 4
v -2 6 4
v -2 8 4
v -1 2 4
v -1 6 4
v -1 9 4
v 1 2 4
v 1 6 4
v -7 0 3
v -7 2 3
v -7 6 3
v -7 7 3
v -5 1 3
v -5 2 3
v -5 5 3
v -5 6 3
v -5 7 3
v -4 0 3
v -4 1 3
v -4 2 3
v -4 5 3
v -4 7 3
v -4 8 3
v -3 0 3
v -3 2 3
v -3 3 3
v -3 4 3
v -3 5 3
v -3 6 3
v -3 7 3
v -2 1 3
v -2 2 3
v -2 3 3
v -2 4 3
v -2 5 3
v -2 6 3
v -2 7 3
v -2 8 3
v -1 1 3
v -1 2 3
v -1 5 3
v -1 6 3
v -1 7 3
v 1 0 3
v 1 2 3
v 1 6 3
v 1 7 3
v 1 3 2
v 1 5 2
v 7 3 2
v 7 5 2
v 1 2 1
v 1 3 1
v 1 5 1
v 1 6 1
v 7 2 1
v 7 3 1
v 7 5 1
v 7 6 1
v -5 7 -1
v -5 8 -1
v -4 7 -1
v -4 8 -1
v -2 7 -1
v -2 8 -1
v -1 7 -1
v -1 8 -1
v 2 3 -1
v 2 5 -1
v 7 3 -1
v 7 5 -1
v -7 1 -2
v -7 2 -2
v -7 3 -2
v -7 4 -2
v -7 5 -2
v -7 6 -2
v -6 1 -2
v -6 2 -2
v -6 3 -2
v -6 4 -2
v -6 5 -2
v -6 6 -2
v -5 8 -3
v -5 9 -3
v -4 8 -3
v -2 8 -3
v -1 8 -3
v -1 9 -3
v -5 2 -4
v -5 5 -4
v -4 1 -4
v -4 2 -4
v -4 3 -4
v -4 4 -4
v -4 5 -4
v -4 6 -4
v -2 1 -4
v -2 2 -4
v -2 3 -4
v -2 4 -4
v -2 5 -4
v -2 6 -4
v -1 2 -4
v -1 5 -4
v -5 2 4
v -5 5 4
v -4 1 4
v -4 2 4
v -4 3 4
v -4 4 4
v -4 5 4
v -4 6 4
v -2 1 4
v -2 2 4
v -2 3 4
v -2 4 4
v -2 5 4
v -2 6 4
v -1 2 4
v -1 5 4
v -5 8 3
v -5 9 3
v -4 8 3
v -2 8 3
v -1 8 3
v -1 9 3
v -7 1 2
v -7 2 2
v -7 3 2
v -7 4 2
v -7 5 2
v -7 6 2
v -6 1 2
v -6 2 2
v -6 3 2
v -6 4 2
v -6 5 2
v -6 6 2
v -5 7 1
v -5 8 1
v -4 7 1
v -4 8 1
v -2 7 1
v -2 8 1
v -1 7 1
v -1 8 1
v 2 3 1
v 2 5 1
v 7 3 1
v 7 5 1
v 1 2 -1
v 1 3 -1
v 1 5 -1
v 1 6 -1
v 7 2 -1
v 7 3 -1
v 7 5 -1
v 7 6 -1
v 1 3 -2
v 1 5 -2
v 7 3 -2
v 7 5 -2
v -7 0 -3
v -7 2 -3
v -7 6 -3
v -7 7 -3
v -5 1 -3
v -5 2 -3
v -5 5 -3
v -5 6 -3
v -5 7 -3
v -4 0 -3
v -4 1 -3
v -4 2 -3
v -4 5 -3
v -4 7 -3
v -4 8 -3
v -3 0 -3
v -3 2 -3
v -3 3 -3
v -3 4 -3
v -3 5 -3
v -3 6 -3
v -3 7 -3
v -2 1 -3
v -2 2 -3
v -2 3 -3
v -2 4 -3
v -2 5 -3
v -2 6 -3
v -2 7 -3
v -2 8 -3
v -1 1 -3
v -1 2 -3
v -1 5 -3
v -1 6 -3
v -1 7 -3
v 1 0 -3
v 1 2 -3
v 1 6 -3
v 1 7 -3
v -7 2 -4
v -7 6 -4
v -5 2 -4
v -5 6 -4
v -5 9 -4
v -4 6 -4
v -4 8 -4
v -2 6 -4
v -2 8 -4
v -1 2 -4
v -1 6 -4
v -1 9 -4
v 1 2 -4
v 1 6 -4
v -5 1 -5
v -5 6 -5
v -4 2 -5
v -4 3 -5
v -4 4 -5
v -4 5 -5
v -2 2 -5
v -2 3 -5
v -2 4 -5
v -2 5 -5
v -1 1 -5
v -1 6 -5
v -7 0 3
v -4 0 3
v -3 0 3
v 1 0 3
v -4 0 1
v -3 0 1
v -2 0 1
v -4 0 -1
v -3 0 -1
v -2 0 -1
v -7 0 -3
v -4 0 -3
v -3 0 -3
v 1 0 -3
v -5 1 5
v -1 1 5
v -4 1 4
v -2 1 4
v -5 1 3
v -4 1 3
v -2 1 3
v -1 1 3
v -5 1 -3
v -4 1 -3
v -2 1 -3
v -1 1 -3
v -4 1 -4
v -2 1 -4
v -5 1 -5
v -1 1 -5
v -7 2 4
v -5 2 4
v -1 2 4
v 1 2 4
v -7 2 3
v -5 2 3
v -1 2 3
v 1 2 3
v -7 2 2
v -6 2 2
v 1 2 1
v 7 2 1
v 1 2 -1
v 7 2 -1
v -7 2 -2
v -6 2 -2
v -7 2 -3
v -5 2 -3
v -1 2 -3
v 1 2 -3
v -7 2 -4
v -5 2 -4
v -1 2 -4
v 1 2 -4
v -4 3 5
v -2 3 5
v -4 3 4
v -2 3 4
v 1 3 2
v 7 3 2
v 1 3 1
v 7 3 1
v 1 3 -1
v 7 3 -1
v 1 3 -2
v 7 3 -2
v -4 3 -4
v -2 3 -4
v -4 3 -5
v -2 3 -5
v -7 4 2
v -6 4 2
v -7 4 -2
v -6 4 -2
v -4 5 5
v -2 5 5
v -5 5 4
v -4 5 4
v -2 5 4
v -1 5 4
v -5 5 3
v -4 5 3
v -2 5 3
v -1 5 3
v 2 5 1
v 7 5 1
v 2 5 -1
v 7 5 -1
v -5 5 -3
v -4 5 -3
v -2 5 -3
v -1 5 -3
v -5 5 -4
v -4 5 -4
v -2 5 -4
v -1 5 -4
v -4 5 -5
v -2 5 -5
v -7 6 2
v -6 6 2
v -7 6 -2
v -6 6 -2
v -4 8 4
v -2 8 4
v -4 8 3
v -2 8 3
v -4 8 -3
v -2 8 -3
v -4 8 -4
v -2 8 -4
v -7 1 2
v -6 1 2
v -7 1 -2
v -6 1 -2
v -4 2 5
v -2 2 5
v -5 2 4
v -4 2 4
v -2 2 4
v -1 2 4
v -5 2 3
v -4 2 3
v -2 2 3
v -1 2 3
v -5 2 -3
v -4 2 -3
v -2 2 -3
v -1 2 -3
v -5 2 -4
v -4 2 -4
v -2 2 -4
v -1 2 -4
v -4 2 -5
v -2 2 -5
v -7 3 2
v -6 3 2
v 2 3 1
v 7 3 1
v 2 3 -1
v 7 3 -1
v -7 3 -2
v -6 3 -2
v -4 4 5
v -2 4 5
v -4 4 4
v -2 4 4
v -4 4 -4
v -2 4 -4
v -4 4 -5
v -2 4 -5
v -7 5 2
v -6 5 2
v 1 5 2
v 7 5 2
v 1 5 1
v 7 5 1
v 1 5 -1
v 7 5 -1
v -7 5 -2
v -6 5 -2
v 1 5 -2
v 7 5 -2
v -5 6 5
v -1 6 5
v -7 6 4
v -5 6 4
v -4 6 4
v -2 6 4
v -1 6 4
v 1 6 4
v -7 6 3
v -5 6 3
v -1 6 3
v 1 6 3
v 1 6 1
v 7 6 1
v 1 6 -1
v 7 6 -1
v -7 6 -3
v -5 6 -3
v -1 6 -3
v 1 6 -3
v -7 6 -4
v -5 6 -4
v -4 6 -4
v -2 6 -4
v -1 6 -4
v 1 6 -4
v -5 6 -5
v -1 6 -5
v -7 7 3
v -5 7 3
v -1 7 3
v 1 7 3
v -5 7 1
v -4 7 1
v -2 7 1
v -1 7 1
v -5 7 -1
v -4 7 -1
v -2 7 -1
v -1 7 -1
v -7 7 -3
v -5 7 -3
v -1 7 -3
v 1 7 -3
v -5 8 3
v -4 8 3
v -2 8 3
v -1 8 3
v -5 8 1
v -4 8 1
v -2 8 1
v -1 8 1
v -5 8 -1
v -4 8 -1
v -2 8 -1
v -1 8 -1
v -5 8 -3
v -4 8 -3
v -2 8 -3
v -1 8 -3
v -5 9 4
v -1 9 4
v -5 9 3
v -1 9 3
v -5 9 -3
v -1 9 -3
v -5 9 -4
v -1 9 -4

# faces
f 3/7/1 2/7/1 1/7/1
f 4/7/1 2/7/1 3/7/1
f 6/7/1 3/7/1 1/7/1
f 7/7/1 3/7/1 6/7/1
f 8/7/1 2/7/1 4/7/1
f 9/7/1 2/7/1 8/7/1
f 11/7/1 7/7/1 6/7/1
f 11/7/1 10/7/1 9/7/1
f 11/7/1 9/7/1 8/7/1
f 11/7/1 8/7/1 7/7/1
f 11/7/1 6/7/1 5/7/1
f 12/7/1 10/7/1 11/7/1
f 13/7/1 11/7/1 5/7/1
f 14/7/1 10/7/1 12/7/1
f 15/7/1 13/7/1 5/7/1
f 15/7/1 14/7/1 13/7/1
f 16/7/1 10/7/1 14/7/1
f 16/7/1 14/7/1 15/7/1
f 17/7/1 15/7/1 5/7/1
f 18/7/1 15/7/1 17/7/1
f 19/7/1 15/7/1 18/7/1
f 20/7/1 10/7/1 16/7/1
f 21/7/1 10/7/1 20/7/1
f 22/7/1 10/7/1 21/7/1
f 23/7/1 19/7/1 18/7/1
f 23/7/1 21/7/1 20/7/1
f 23/7/1 20/7/1 19/7/1
f 24/7/1 21/7/1 23/7/1
f 27/6/1 26/6/1 25/6/1
f 28/6/1 26/6/1 27/6/1
f 31/6/1 30/6/1 29/6/1
f 32/6/1 30/6/1 31/6/1
f 35/6/1 34/6/1 33/6/1
f 36/6/1 34/6/1 35/6/1
f 41/4/1 38/4/1 37/4/1
f 42/4/1 38/4/1 41/4/1
f 43/4/1 40/4/1 39/4/1
f 44/4/1 40/4/1 43/4/1
f 45/4/1 41/4/1 37/4/1
f 46/4/1 41/4/1 45/4/1
f 49/4/1 40/4/1 44/4/1
f 50/4/1 40/4/1 49/4/1
f 51/4/1 47/4/1 46/4/1
f 54/4/1 49/4/1 48/4/1
f 55/4/1 52/4/1 51/4/1
f 55/4/1 51/4/1 46/4/1
f 56/4/1 52/4/1 55/4/1
f 57/4/1 54/4/1 53/4/1
f 58/4/1 49/4/1 54/4/1
f 58/4/1 54/4/1 57/4/1
f 59/4/1 55/4/1 46/4/1
f 60/4/1 55/4/1 59/4/1
f 61/4/1 49/4/1 58/4/1
f 62/4/1 49/4/1 61/4/1
f 65/4/1 64/4/1 63/4/1
f 66/4/1 64/4/1 65/4/1
f 72/4/1 68/4/1 67/4/1
f 73/4/1 68/4/1 72/4/1
f 74/4/1 70/4/1 69/4/1
f 75/4/1 70/4/1 74/4/1
f 77/4/1 72/4/1 71/4/1
f 78/4/1 72/4/1 77/4/1
f 79/4/1 76/4/1 75/4/1
f 80/4/1 76/4/1 79/4/1
f 85/4/1 82/4/1 81/4/1
f 86/4/1 82/4/1 85/4/1
f 89/4/1 84/4/1 83/4/1
f 90/4/1 84/4/1 89/4/1
f 91/4/1 87/4/1 86/4/1
f 92/4/1 87/4/1 91/4/1
f 93/4/1 89/4/1 88/4/1
f 94/4/1 89/4/1 93/4/1
f 95/4/1 92/4/1 91/4/1
f 96/4/1 94/4/1 93/4/1
f 97/4/1 95/4/1 91/4/1
f 98/4/1 95/4/1 97/4/1
f 99/4/1 94/4/1 96/4/1
f 100/4/1 94/4/1 99/4/1
f 105/7/1 102/7/1 101/7/1
f 106/7/1 102/7/1 105/7/1
f 107/7/1 104/7/1 103/7/1
f 108/7/1 104/7/1 107/7/1
f 109/7/2 110/7/2 113/7/2
f 113/7/2 110/7/2 114/7/2
f 111/7/2 112/7/2 115/7/2
f 115/7/2 112/7/2 116/7/2
f 117/4/2 118/4/2 122/4/2
f 122/4/2 118/4/2 123/4/2
f 119/4/2 120/4/2 124/4/2
f 124/4/2 120/4/2 125/4/2
f 121/4/2 122/4/2 127/4/2
f 127/4/2 122/4/2 128/4/2
f 125/4/2 126/4/2 129/4/2
f 129/4/2 126/4/2 130/4/2
f 131/4/2 132/4/2 135/4/2
f 135/4/2 132/4/2 136/4/2
f 133/4/2 134/4/2 139/4/2
f 139/4/2 134/4/2 140/4/2
f 136/4/2 137/4/2 141/4/2
f 138/4/2 139/4/2 142/4/2
f 141/4/2 137/4/2 143/4/2
f 138/4/2 142/4/2 144/4/2
f 141/4/2 143/4/2 145/4/2
f 145/4/2 143/4/2 146/4/2
f 144/4/2 142/4/2 147/4/2
f 147/4/2 142/4/2 148/4/2
f 149/4/2 150/4/2 151/4/2
f 151/4/2 150/4/2 152/4/2
f 153/4/2 154/4/2 157/4/2
f 157/4/2 154/4/2 158/4/2
f 155/4/2 156/4/2 159/4/2
f 159/4/2 156/4/2 160/4/2
f 153/4/2 157/4/2 161/4/2
f 161/4/2 157/4/2 162/4/2
f 160/4/2 156/4/2 165/4/2
f 165/4/2 156/4/2 166/4/2
f 162/4/2 163/4/2 167/4/2
f 164/4/2 165/4/2 170/4/2
f 167/4/2 168/4/2 171/4/2
f 162/4/2 167/4/2 171/4/2
f 171/4/2 168/4/2 172/4/2
f 169/4/2 170/4/2 173/4/2
f 170/4/2 165/4/2 174/4/2
f 173/4/2 170/4/2 174/4/2
f 162/4/2 171/4/2 175/4/2
f 175/4/2 171/4/2 176/4/2
f 174/4/2 165/4/2 177/4/2
f 177/4/2 165/4/2 178/4/2
f 179/7/2 180/7/2 182/7/2
f 182/7/2 180/7/2 183/7/2
f 183/7/2 180/7/2 184/7/2
f 184/7/2 180/7/2 185/7/2
f 181/7/2 182/7/2 187/7/2
f 182/7/2 183/7/2 187/7/2
f 187/7/2 183/7/2 188/7/2
f 185/7/2 186/7/2 189/7/2
f 184/7/2 185/7/2 189/7/2
f 189/7/2 186/7/2 190/7/2
f 181/7/2 187/7/2 191/7/2
f 190/7/2 186/7/2 194/7/2
f 191/7/2 192/7/2 195/7/2
f 181/7/2 191/7/2 195/7/2
f 195/7/2 192/7/2 196/7/2
f 196/7/2 192/7/2 197/7/2
f 193/7/2 194/7/2 198/7/2
f 194/7/2 186/7/2 199/7/2
f 198/7/2 194/7/2 199/7/2
f 199/7/2 186/7/2 200/7/2
f 196/7/2 197/7/2 201/7/2
f 197/7/2 198/7/2 201/7/2
f 198/7/2 199/7/2 201/7/2
f 201/7/2 199/7/2 202/7/2
f 203/3/2 204/3/2 205/3/2
f 205/3/2 204/3/2 206/3/2
f 207/5/2 208/5/2 210/5/2
f 210/5/2 208/5/2 211/5/2
f 209/5/2 210/5/2 213/5/2
f 213/5/2 210/5/2 214/5/2
f 211/5/2 212/5/2 215/5/2
f 215/5/2 212/5/2 216/5/2
f 214/5/2 215/5/2 217/5/2
f 217/5/2 215/5/2 218/5/2
f 221/4/3 220/4/3 219/4/3
f 222/4/3 220/4/3 221/4/3
f 223/4/3 220/4/3 222/4/3
f 224/4/3 220/4/3 223/4/3
f 225/4/3 221/4/3 219/4/3
f 226/4/3 223/4/3 222/4/3
f 227/4/3 223/4/3 226/4/3
f 228/4/3 220/4/3 224/4/3
f 229/4/3 227/4/3 226/4/3
f 229/4/3 228/4/3 227/4/3
f 229/4/3 225/4/3 219/4/3
f 229/4/3 226/4/3 225/4/3
f 230/4/3 220/4/3 228/4/3
f 230/4/3 228/4/3 229/4/3
f 233/7/3 232/7/3 231/7/3
f 234/7/3 232/7/3 233/7/3
f 236/4/3 235/4/3 234/4/3
f 237/4/3 235/4/3 236/4/3
f 239/4/3 235/4/3 237/4/3
f 241/4/3 239/4/3 238/4/3
f 242/4/3 235/4/3 239/4/3
f 242/4/3 239/4/3 241/4/3
f 243/7/3 241/7/3 240/7/3
f 244/7/3 241/7/3 243/7/3
f 249/7/3 246/7/3 245/7/3
f 250/7/3 246/7/3 249/7/3
f 252/7/3 248/7/3 247/7/3
f 253/7/3 248/7/3 252/7/3
f 254/7/3 249/7/3 245/7/3
f 255/7/3 249/7/3 254/7/3
f 256/7/3 251/7/3 250/7/3
f 257/7/3 251/7/3 256/7/3
f 260/2/3 255/2/3 254/2/3
f 260/2/3 258/2/3 257/2/3
f 260/2/3 257/2/3 256/2/3
f 260/2/3 256/2/3 255/2/3
f 261/2/3 258/2/3 260/2/3
f 262/2/3 258/2/3 261/2/3
f 263/2/3 258/2/3 262/2/3
f 264/2/3 258/2/3 263/2/3
f 265/2/3 258/2/3 264/2/3
f 266/5/3 259/5/3 258/5/3
f 266/2/3 258/2/3 265/2/3
f 267/7/3 261/7/3 260/7/3
f 268/6/3 262/6/3 261/6/3
f 268/7/3 261/7/3 267/7/3
f 269/7/3 263/7/3 262/7/3
f 269/6/3 262/6/3 268/6/3
f 270/6/3 264/6/3 263/6/3
f 270/7/3 263/7/3 269/7/3
f 271/7/3 265/7/3 264/7/3
f 271/6/3 264/6/3 270/6/3
f 272/6/3 266/6/3 265/6/3
f 272/7/3 265/7/3 271/7/3
f 273/5/3 259/5/3 266/5/3
f 273/6/3 266/6/3 272/6/3
f 274/5/3 259/5/3 273/5/3
f 275/7/3 267/7/3 260/7/3
f 276/7/3 270/7/3 269/7/3
f 276/7/3 271/7/3 270/7/3
f 276/7/3 269/7/3 268/7/3
f 277/7/3 271/7/3 276/7/3
f 280/7/3 275/7/3 260/7/3
f 280/7/3 276/7/3 275/7/3
f 281/7/3 276/7/3 280/7/3
f 282/7/3 279/7/3 278/7/3
f 283/7/3 279/7/3 282/7/3
f 286/5/3 285/5/3 284/5/3
f 287/5/3 285/5/3 286/5/3
f 292/5/3 289/5/3 288/5/3
f 293/5/3 289/5/3 292/5/3
f 294/5/3 291/5/3 290/5/3
f 295/5/3 291/5/3 294/5/3
f 298/4/3 297/4/3 296/4/3
f 299/4/3 297/4/3 298/4/3
f 302/4/3 301/4/3 300/4/3
f 303/4/3 301/4/3 302/4/3
f 306/5/3 305/5/3 304/5/3
f 307/5/3 305/5/3 306/5/3
f 314/7/3 309/7/3 308/7/3
f 315/7/3 309/7/3 314/7/3
f 316/7/3 311/7/3 310/7/3
f 317/7/3 311/7/3 316/7/3
f 318/7/3 313/7/3 312/7/3
f 319/7/3 313/7/3 318/7/3
f 322/4/3 321/4/3 320/4/3
f 323/4/3 321/4/3 322/4/3
f 324/4/3 321/4/3 323/4/3
f 325/4/3 321/4/3 324/4/3
f 329/4/3 327/4/3 326/4/3
f 330/4/3 327/4/3 329/4/3
f 331/4/3 327/4/3 330/4/3
f 332/4/3 327/4/3 331/4/3
f 334/4/3 329/4/3 328/4/3
f 335/4/3 329/4/3 334/4/3
f 336/4/3 331/4/3 330/4/3
f 337/4/3 331/4/3 336/4/3
f 338/4/3 333/4/3 332/4/3
f 339/4/3 333/4/3 338/4/3
f 340/4/3 337/4/3 336/4/3
f 340/4/3 338/4/3 337/4/3
f 340/4/3 336/4/3 335/4/3
f 341/4/3 338/4/3 340/4/3
f 342/4/4 343/4/4 345/4/4
f 345/4/4 343/4/4 346/4/4
f 346/4/4 343/4/4 347/4/4
f 347/4/4 343/4/4 348/4/4
f 344/4/4 345/4/4 350/4/4
f 350/4/4 345/4/4 351/4/4
f 346/4/4 347/4/4 352/4/4
f 352/4/4 347/4/4 353/4/4
f 348/4/4 349/4/4 354/4/4
f 354/4/4 349/4/4 355/4/4
f 352/4/4 353/4/4 356/4/4
f 353/4/4 354/4/4 356/4/4
f 351/4/4 352/4/4 356/4/4
f 356/4/4 354/4/4 357/4/4
f 358/4/4 359/4/4 360/4/4
f 360/4/4 359/4/4 361/4/4
f 361/4/4 359/4/4 362/4/4
f 362/4/4 359/4/4 363/4/4
f 364/7/4 365/7/4 370/7/4
f 370/7/4 365/7/4 371/7/4
f 366/7/4 367/7/4 372/7/4
f 372/7/4 367/7/4 373/7/4
f 368/7/4 369/7/4 374/7/4
f 374/7/4 369/7/4 375/7/4
f 376/4/4 377/4/4 378/4/4
f 378/4/4 377/4/4 379/4/4
f 380/4/4 381/4/4 382/4/4
f 382/4/4 381/4/4 383/4/4
f 384/5/4 385/5/4 386/5/4
f 386/5/4 385/5/4 387/5/4
f 388/5/4 389/5/4 392/5/4
f 392/5/4 389/5/4 393/5/4
f 390/5/4 391/5/4 394/5/4
f 394/5/4 391/5/4 395/5/4
f 396/5/4 397/5/4 398/5/4
f 398/5/4 397/5/4 399/5/4
f 400/7/4 401/7/4 404/7/4
f 404/7/4 401/7/4 405/7/4
f 402/7/4 403/7/4 407/7/4
f 407/7/4 403/7/4 408/7/4
f 400/7/4 404/7/4 409/7/4
f 409/7/4 404/7/4 410/7/4
f 405/7/4 406/7/4 411/7/4
f 411/7/4 406/7/4 412/7/4
f 409/2/4 410/2/4 415/2/4
f 412/2/4 413/2/4 415/2/4
f 411/2/4 412/2/4 415/2/4
f 410/2/4 411/2/4 415/2/4
f 415/2/4 413/2/4 416/2/4
f 416/2/4 413/2/4 417/2/4
f 417/2/4 413/2/4 418/2/4
f 418/2/4 413/2/4 419/2/4
f 419/2/4 413/2/4 420/2/4
f 413/5/4 414/5/4 421/5/4
f 420/2/4 413/2/4 421/2/4
f 415/7/4 416/7/4 422/7/4
f 416/6/4 417/6/4 423/6/4
f 422/7/4 416/7/4 423/7/4
f 417/7/4 418/7/4 424/7/4
f 423/6/4 417/6/4 424/6/4
f 418/6/4 419/6/4 425/6/4
f 424/7/4 418/7/4 425/7/4
f 419/7/4 420/7/4 426/7/4
f 425/6/4 419/6/4 426/6/4
f 420/6/4 421/6/4 427/6/4
f 426/7/4 420/7/4 427/7/4
f 421/5/4 414/5/4 428/5/4
f 427/6/4 421/6/4 428/6/4
f 428/5/4 414/5/4 429/5/4
f 415/7/4 422/7/4 430/7/4
f 424/7/4 425/7/4 431/7/4
f 425/7/4 426/7/4 431/7/4
f 423/7/4 424/7/4 431/7/4
f 431/7/4 426/7/4 432/7/4
f 415/7/4 430/7/4 435/7/4
f 430/7/4 431/7/4 435/7/4
f 435/7/4 431/7/4 436/7/4
f 433/7/4 434/7/4 437/7/4
f 437/7/4 434/7/4 438/7/4
f 439/7/4 440/7/4 441/7/4
f 441/7/4 440/7/4 442/7/4
f 442/4/4 443/4/4 444/4/4
f 444/4/4 443/4/4 445/4/4
f 445/4/4 443/4/4 447/4/4
f 446/4/4 447/4/4 449/4/4
f 447/4/4 443/4/4 450/4/4
f 449/4/4 447/4/4 450/4/4
f 448/7/4 449/7/4 451/7/4
f 451/7/4 449/7/4 452/7/4
f 453/4/4 454/4/4 455/4/4
f 455/4/4 454/4/4 456/4/4
f 456/4/4 454/4/4 457/4/4
f 457/4/4 454/4/4 458/4/4
f 453/4/4 455/4/4 459/4/4
f 456/4/4 457/4/4 460/4/4
f 460/4/4 457/4/4 461/4/4
f 458/4/4 454/4/4 462/4/4
f 460/4/4 461/4/4 463/4/4
f 461/4/4 462/4/4 463/4/4
f 453/4/4 459/4/4 463/4/4
f 459/4/4 460/4/4 463/4/4
f 462/4/4 454/4/4 464/4/4
f 463/4/4 462/4/4 464/4/4
f 469/7/5 466/7/5 465/7/5
f 469/2/5 467/2/5 466/2/5
f 470/7/5 468/7/5 467/7/5
f 470/2/5 467/2/5 469/2/5
f 471/7/5 468/7/5 470/7/5
f 472/7/5 469/7/5 465/7/5
f 472/1/5 470/1/5 469/1/5
f 472/1/5 471/1/5 470/1/5
f 473/1/5 471/1/5 472/1/5
f 474/7/5 468/7/5 471/7/5
f 474/1/5 471/1/5 473/1/5
f 475/7/5 472/7/5 465/7/5
f 476/2/5 473/2/5 472/2/5
f 476/7/5 472/7/5 475/7/5
f 477/7/5 474/7/5 473/7/5
f 477/2/5 473/2/5 476/2/5
f 478/7/5 468/7/5 474/7/5
f 478/7/5 474/7/5 477/7/5
f 481/4/5 480/4/5 479/4/5
f 482/4/5 480/4/5 481/4/5
f 483/4/5 481/4/5 479/4/5
f 484/4/5 481/4/5 483/4/5
f 485/4/5 480/4/5 482/4/5
f 486/4/5 480/4/5 485/4/5
f 491/4/5 488/4/5 487/4/5
f 492/4/5 490/4/5 489/4/5
f 493/4/5 491/4/5 487/4/5
f 493/4/5 492/4/5 491/4/5
f 494/4/5 490/4/5 492/4/5
f 494/4/5 492/4/5 493/4/5
f 499/7/5 496/7/5 495/7/5
f 500/7/5 496/7/5 499/7/5
f 501/7/5 498/7/5 497/7/5
f 502/7/5 498/7/5 501/7/5
f 507/5/5 506/5/5 505/5/5
f 508/5/5 506/5/5 507/5/5
f 509/7/5 504/7/5 503/7/5
f 510/7/5 504/7/5 509/7/5
f 515/7/5 512/7/5 511/7/5
f 516/7/5 512/7/5 515/7/5
f 517/7/5 514/7/5 513/7/5
f 518/7/5 514/7/5 517/7/5
f 521/4/5 520/4/5 519/4/5
f 522/4/5 520/4/5 521/4/5
f 525/5/5 524/5/5 523/5/5
f 526/5/5 524/5/5 525/5/5
f 529/5/5 528/5/5 527/5/5
f 530/5/5 528/5/5 529/5/5
f 533/4/5 532/4/5 531/4/5
f 534/4/5 532/4/5 533/4/5
f 537/7/5 536/7/5 535/7/5
f 538/7/5 536/7/5 537/7/5
f 542/4/5 540/4/5 539/4/5
f 543/4/5 540/4/5 542/4/5
f 545/4/5 542/4/5 541/4/5
f 546/4/5 542/4/5 545/4/5
f 547/4/5 544/4/5 543/4/5
f 548/4/5 544/4/5 547/4/5
f 551/5/5 550/5/5 549/5/5
f 552/5/5 550/5/5 551/5/5
f 557/4/5 554/4/5 553/4/5
f 558/4/5 554/4/5 557/4/5
f 559/4/5 556/4/5 555/4/5
f 560/4/5 556/4/5 559/4/5
f 561/4/5 559/4/5 558/4/5
f 562/4/5 559/4/5 561/4/5
f 565/7/5 564/7/5 563/7/5
f 566/7/5 564/7/5 565/7/5
f 569/4/5 568/4/5 567/4/5
f 570/4/5 568/4/5 569/4/5
f 573/4/5 572/4/5 571/4/5
f 574/4/5 572/4/5 573/4/5
f 575/7/6 576/7/6 577/7/6
f 577/7/6 576/7/6 578/7/6
f 579/4/6 580/4/6 582/4/6
f 582/4/6 580/4/6 583/4/6
f 581/4/6 582/4/6 585/4/6
f 585/4/6 582/4/6 586/4/6
f 583/4/6 584/4/6 587/4/6
f 587/4/6 584/4/6 588/4/6
f 589/4/6 590/4/6 593/4/6
f 593/4/6 590/4/6 594/4/6
f 591/4/6 592/4/6 595/4/6
f 595/4/6 592/4/6 596/4/6
f 594/4/6 595/4/6 597/4/6
f 597/4/6 595/4/6 598/4/6
f 601/5/6 602/5/6 603/5/6
f 603/5/6 602/5/6 604/5/6
f 599/7/6 600/7/6 605/7/6
f 605/7/6 600/7/6 606/7/6
f 607/4/6 608/4/6 609/4/6
f 609/4/6 608/4/6 610/4/6
f 611/4/6 612/4/6 613/4/6
f 613/4/6 612/4/6 614/4/6
f 617/5/6 618/5/6 619/5/6
f 619/5/6 618/5/6 620/5/6
f 615/7/6 616/7/6 623/7/6
f 623/7/6 616/7/6 624/7/6
f 621/5/6 622/5/6 625/5/6
f 625/5/6 622/5/6 626/5/6
f 627/4/6 628/4/6 630/4/6
f 630/4/6 628/4/6 631/4/6
f 631/4/6 628/4/6 632/4/6
f 632/4/6 628/4/6 633/4/6
f 629/7/6 630/7/6 635/7/6
f 635/7/6 630/7/6 636/7/6
f 633/7/6 634/7/6 637/7/6
f 637/7/6 634/7/6 638/7/6
f 639/5/6 640/5/6 641/5/6
f 641/5/6 640/5/6 642/5/6
f 643/7/6 644/7/6 647/7/6
f 647/7/6 644/7/6 648/7/6
f 645/7/6 646/7/6 651/7/6
f 651/7/6 646/7/6 652/7/6
f 649/4/6 650/4/6 653/4/6
f 650/4/6 651/4/6 653/4/6
f 648/4/6 649/4/6 653/4/6
f 653/4/6 651/4/6 654/4/6
f 655/7/6 656/7/6 659/7/6
f 657/7/6 658/7/6 662/7/6
f 659/6/6 660/6/6 663/6/6
f 655/7/6 659/7/6 663/7/6
f 663/6/6 660/6/6 664/6/6
f 661/6/6 662/6/6 665/6/6
f 662/7/6 658/7/6 666/7/6
f 665/6/6 662/6/6 666/6/6
f 655/7/6 663/7/6 667/7/6
f 667/7/6 663/7/6 668/7/6
f 666/7/6 658/7/6 669/7/6
f 669/7/6 658/7/6 670/7/6
f 671/4/6 672/4/6 675/4/6
f 672/5/6 673/5/6 676/5/6
f 675/4/6 672/4/6 676/4/6
f 673/4/6 674/4/6 677/4/6
f 676/5/6 673/5/6 677/5/6
f 677/4/6 674/4/6 678/4/6
f 676/4/6 677/4/6 680/4/6
f 680/4/6 677/4/6 681/4/6
f 679/4/6 680/4/6 683/4/6
f 680/5/6 681/5/6 684/5/6
f 683/4/6 680/4/6 684/4/6
f 681/4/6 682/4/6 685/4/6
f 684/5/6 681/5/6 685/5/6
f 685/4/6 682/4/6 686/4/6
f 687/4/6 688/4/6 689/4/6
f 689/4/6 688/4/6 690/4/6
f 691/4/6 692/4/6 693/4/6
f 693/4/6 692/4/6 694/4/6
